<svg width="265" height="97" viewBox="0 0 265 97" fill="none" xmlns="http://www.w3.org/2000/svg">
<path d="M79.384 55.566C78.748 55.518 78.328 55.362 78.124 55.098C77.932 54.834 77.836 54.504 77.836 54.108C77.836 53.664 77.914 53.13 78.07 52.506C78.226 51.882 78.43 51.216 78.682 50.508C78.934 49.8 79.21 49.098 79.51 48.402C79.378 48.414 79.168 48.432 78.88 48.456C78.604 48.48 78.316 48.51 78.016 48.546C77.728 48.57 77.494 48.6 77.314 48.636C77.35 48.264 77.488 47.976 77.728 47.772C77.98 47.556 78.298 47.4 78.682 47.304C79.078 47.208 79.504 47.154 79.96 47.142C80.272 46.278 80.59 45.438 80.914 44.622C81.25 43.794 81.586 43.038 81.922 42.354C81.85 42.342 81.766 42.336 81.67 42.336C81.574 42.324 81.442 42.318 81.274 42.318C80.542 42.318 79.972 42.396 79.564 42.552C79.168 42.708 78.892 42.93 78.736 43.218C78.592 43.506 78.52 43.86 78.52 44.28C78.52 44.58 78.55 44.856 78.61 45.108C78.67 45.348 78.76 45.612 78.88 45.9C78.316 45.804 77.914 45.624 77.674 45.36C77.434 45.084 77.314 44.742 77.314 44.334C77.314 43.71 77.542 43.158 77.998 42.678C78.466 42.198 79.09 41.82 79.87 41.544C80.662 41.268 81.55 41.13 82.534 41.13C83.17 41.13 83.806 41.172 84.442 41.256C85.078 41.34 85.672 41.382 86.224 41.382C86.524 41.382 86.812 41.364 87.088 41.328C87.364 41.28 87.682 41.208 88.042 41.112C87.466 41.748 86.992 42.174 86.62 42.39C86.26 42.606 85.906 42.714 85.558 42.714C85.27 42.714 84.898 42.678 84.442 42.606C83.986 42.522 83.494 42.462 82.966 42.426C82.81 42.81 82.642 43.254 82.462 43.758C82.282 44.262 82.096 44.802 81.904 45.378C81.724 45.954 81.538 46.548 81.346 47.16C81.97 47.208 82.534 47.262 83.038 47.322C83.542 47.382 84.1 47.424 84.712 47.448C84.568 47.64 84.418 47.796 84.262 47.916C84.118 48.024 83.92 48.102 83.668 48.15C83.428 48.198 83.092 48.234 82.66 48.258C82.24 48.282 81.688 48.3 81.004 48.312C80.908 48.672 80.806 49.038 80.698 49.41C80.59 49.782 80.494 50.1 80.41 50.364C80.338 50.628 80.29 50.79 80.266 50.85C79.93 52.002 79.696 52.944 79.564 53.676C79.444 54.396 79.384 55.026 79.384 55.566ZM88.0312 54.468C87.5872 54.468 87.2272 54.348 86.9512 54.108C86.6752 53.88 86.5372 53.568 86.5372 53.172C86.5372 52.836 86.6212 52.476 86.7892 52.092C86.9572 51.708 87.1252 51.33 87.2932 50.958C87.4732 50.586 87.5632 50.256 87.5632 49.968C87.5632 49.692 87.4732 49.464 87.2932 49.284C87.1132 49.092 86.9032 48.936 86.6632 48.816C86.3992 49.476 86.0992 50.118 85.7632 50.742C85.4392 51.354 85.1752 51.834 84.9712 52.182L84.7012 51.66C84.8692 51.348 85.0912 50.904 85.3672 50.328C85.6432 49.752 85.9072 49.11 86.1592 48.402C86.0392 48.282 85.9792 48.12 85.9792 47.916C85.9792 47.604 86.0752 47.31 86.2672 47.034C86.4592 46.758 86.6452 46.62 86.8252 46.62C86.9692 46.62 87.0712 46.704 87.1312 46.872C87.2032 47.028 87.2392 47.136 87.2392 47.196C87.2392 47.256 87.2092 47.364 87.1492 47.52C87.1012 47.676 87.0652 47.79 87.0412 47.862C87.0532 47.994 87.1552 48.126 87.3472 48.258C87.5512 48.378 87.7792 48.522 88.0312 48.69C88.2832 48.858 88.5052 49.068 88.6972 49.32C88.8892 49.572 88.9852 49.89 88.9852 50.274C88.9852 50.622 88.9072 50.976 88.7512 51.336C88.5952 51.696 88.4392 52.032 88.2832 52.344C88.1272 52.656 88.0492 52.926 88.0492 53.154C88.0492 53.322 88.0912 53.436 88.1752 53.496C88.2712 53.544 88.3792 53.568 88.4992 53.568C88.7872 53.568 89.0872 53.484 89.3992 53.316C89.7112 53.136 90.0172 52.908 90.3172 52.632C90.6172 52.356 90.8812 52.068 91.1092 51.768C91.3372 51.456 91.5112 51.174 91.6312 50.922L92.0632 51.246C91.8352 51.762 91.5052 52.272 91.0732 52.776C90.6412 53.268 90.1612 53.676 89.6332 54C89.1052 54.312 88.5712 54.468 88.0312 54.468ZM92.2482 54.846C91.8522 54.846 91.5102 54.714 91.2222 54.45C90.9222 54.186 90.7722 53.79 90.7722 53.262C90.7722 52.842 90.8682 52.386 91.0602 51.894C91.2522 51.402 91.5162 50.916 91.8522 50.436C92.1882 49.956 92.5722 49.524 93.0042 49.14C93.4362 48.744 93.8982 48.426 94.3902 48.186C94.8822 47.946 95.3742 47.826 95.8662 47.826C96.3822 47.826 96.8202 47.958 97.1802 48.222C97.5402 48.486 97.7202 48.834 97.7202 49.266C97.7202 49.59 97.6062 49.824 97.3782 49.968C97.1502 50.112 96.8802 50.154 96.5682 50.094C96.5922 49.986 96.6102 49.878 96.6222 49.77C96.6462 49.662 96.6582 49.548 96.6582 49.428C96.6582 49.188 96.6102 48.972 96.5142 48.78C96.4182 48.588 96.2142 48.492 95.9022 48.492C95.5662 48.492 95.2242 48.606 94.8762 48.834C94.5282 49.062 94.1922 49.362 93.8682 49.734C93.5562 50.094 93.2742 50.496 93.0222 50.94C92.7702 51.372 92.5722 51.798 92.4282 52.218C92.2842 52.638 92.2122 53.016 92.2122 53.352C92.2122 53.736 92.3502 53.928 92.6262 53.928C92.9022 53.928 93.2082 53.796 93.5442 53.532C93.8802 53.256 94.2162 52.914 94.5522 52.506C94.9002 52.098 95.2302 51.684 95.5422 51.264C95.8542 50.832 96.1242 50.466 96.3522 50.166C96.3882 50.106 96.4362 50.076 96.4962 50.076C96.5442 50.088 96.6342 50.118 96.7662 50.166C96.9102 50.202 97.0422 50.262 97.1622 50.346C97.2822 50.43 97.3422 50.538 97.3422 50.67C97.3422 50.79 97.2882 50.946 97.1802 51.138C97.0842 51.318 96.9642 51.522 96.8202 51.75C96.6882 51.966 96.5682 52.188 96.4602 52.416C96.3642 52.632 96.3162 52.842 96.3162 53.046C96.3162 53.202 96.3582 53.352 96.4422 53.496C96.5262 53.628 96.6642 53.694 96.8562 53.694C97.1442 53.694 97.5462 53.484 98.0622 53.064C98.5902 52.632 99.1242 51.906 99.6642 50.886L100.006 51.228C99.7182 51.876 99.3702 52.452 98.9622 52.956C98.5662 53.448 98.1462 53.832 97.7022 54.108C97.2582 54.396 96.8082 54.54 96.3522 54.54C95.8602 54.54 95.4942 54.384 95.2542 54.072C95.0142 53.76 94.8822 53.424 94.8582 53.064C94.8582 53.04 94.8582 53.022 94.8582 53.01C94.8582 52.998 94.8582 52.986 94.8582 52.974C94.3782 53.55 93.9342 54.006 93.5262 54.342C93.1302 54.678 92.7042 54.846 92.2482 54.846ZM105.304 54.36C104.836 54.36 104.476 54.24 104.224 54C103.984 53.772 103.864 53.478 103.864 53.118C103.864 52.878 103.906 52.626 103.99 52.362C104.074 52.086 104.158 51.81 104.242 51.534C104.326 51.258 104.368 50.994 104.368 50.742C104.368 50.478 104.302 50.298 104.17 50.202C104.05 50.094 103.906 50.04 103.738 50.04C103.378 50.04 103.006 50.19 102.622 50.49C102.25 50.778 101.884 51.144 101.524 51.588C101.176 52.032 100.846 52.494 100.534 52.974C100.222 53.454 99.9523 53.886 99.7243 54.27C99.4963 54.27 99.2803 54.228 99.0763 54.144C98.8723 54.072 98.6983 53.94 98.5543 53.748C98.5663 53.688 98.6383 53.508 98.7703 53.208C98.8903 52.896 99.0283 52.53 99.1843 52.11C99.3403 51.678 99.4783 51.228 99.5983 50.76C99.7183 50.292 99.7783 49.866 99.7783 49.482C99.8623 49.386 99.9883 49.29 100.156 49.194C100.336 49.098 100.522 49.05 100.714 49.05C101.134 49.05 101.344 49.23 101.344 49.59C101.344 49.734 101.314 49.95 101.254 50.238C101.206 50.514 101.134 50.832 101.038 51.192C101.35 50.772 101.692 50.376 102.064 50.004C102.436 49.632 102.82 49.332 103.216 49.104C103.624 48.864 104.032 48.744 104.44 48.744C104.956 48.744 105.334 48.918 105.574 49.266C105.826 49.614 105.952 49.998 105.952 50.418C105.952 50.778 105.892 51.114 105.772 51.426C105.652 51.738 105.532 52.032 105.412 52.308C105.304 52.584 105.25 52.854 105.25 53.118C105.25 53.31 105.292 53.448 105.376 53.532C105.472 53.604 105.574 53.64 105.682 53.64C105.97 53.64 106.27 53.502 106.582 53.226C106.894 52.95 107.188 52.602 107.464 52.182C107.752 51.75 108.004 51.318 108.22 50.886L108.526 51.138C108.274 51.726 107.986 52.266 107.662 52.758C107.35 53.238 106.996 53.628 106.6 53.928C106.216 54.216 105.784 54.36 105.304 54.36ZM109.78 55.008C109.156 55.008 108.64 54.81 108.232 54.414C107.836 54.03 107.638 53.436 107.638 52.632C107.638 52.044 107.752 51.468 107.98 50.904C108.208 50.34 108.514 49.836 108.898 49.392C109.282 48.936 109.708 48.576 110.176 48.312C110.656 48.048 111.142 47.916 111.634 47.916C112.138 47.916 112.498 48.042 112.714 48.294C112.942 48.546 113.056 48.84 113.056 49.176C113.056 49.512 112.972 49.842 112.804 50.166C112.648 50.478 112.432 50.634 112.156 50.634C111.928 50.634 111.742 50.52 111.598 50.292C111.718 50.208 111.844 50.052 111.976 49.824C112.108 49.596 112.174 49.302 112.174 48.942C112.174 48.846 112.15 48.774 112.102 48.726C112.054 48.666 111.964 48.636 111.832 48.636C111.532 48.636 111.214 48.774 110.878 49.05C110.554 49.314 110.248 49.662 109.96 50.094C109.684 50.514 109.456 50.964 109.276 51.444C109.108 51.912 109.024 52.344 109.024 52.74C109.024 53.076 109.108 53.388 109.276 53.676C109.456 53.952 109.798 54.09 110.302 54.09C110.758 54.09 111.232 53.958 111.724 53.694C112.216 53.43 112.678 53.064 113.11 52.596C113.542 52.116 113.89 51.546 114.154 50.886L114.514 51.21C114.226 51.942 113.824 52.596 113.308 53.172C112.804 53.736 112.24 54.18 111.616 54.504C111.004 54.84 110.392 55.008 109.78 55.008ZM115.828 54.792C115.06 54.792 114.466 54.582 114.046 54.162C113.638 53.754 113.434 53.238 113.434 52.614C113.434 52.086 113.566 51.528 113.83 50.94C114.106 50.34 114.472 49.782 114.928 49.266C115.384 48.738 115.888 48.312 116.44 47.988C116.992 47.664 117.544 47.502 118.096 47.502C118.408 47.502 118.702 47.586 118.978 47.754C119.266 47.91 119.41 48.228 119.41 48.708C119.41 49.164 119.278 49.59 119.014 49.986C118.75 50.382 118.396 50.736 117.952 51.048C117.508 51.36 117.016 51.618 116.476 51.822C115.948 52.014 115.414 52.14 114.874 52.2C114.862 52.248 114.85 52.302 114.838 52.362C114.838 52.41 114.838 52.494 114.838 52.614C114.838 52.674 114.844 52.782 114.856 52.938C114.88 53.082 114.934 53.238 115.018 53.406C115.102 53.574 115.24 53.718 115.432 53.838C115.624 53.958 115.888 54.018 116.224 54.018C116.728 54.018 117.232 53.88 117.736 53.604C118.252 53.316 118.732 52.938 119.176 52.47C119.632 52.002 120.01 51.48 120.31 50.904L120.67 51.192C120.346 51.912 119.926 52.542 119.41 53.082C118.906 53.622 118.342 54.042 117.718 54.342C117.106 54.642 116.476 54.792 115.828 54.792ZM115.072 51.534C115.384 51.498 115.732 51.39 116.116 51.21C116.5 51.03 116.866 50.802 117.214 50.526C117.574 50.25 117.868 49.95 118.096 49.626C118.324 49.29 118.438 48.954 118.438 48.618C118.438 48.486 118.414 48.396 118.366 48.348C118.318 48.3 118.24 48.276 118.132 48.276C117.856 48.276 117.568 48.378 117.268 48.582C116.968 48.774 116.674 49.032 116.386 49.356C116.098 49.668 115.84 50.016 115.612 50.4C115.384 50.784 115.204 51.162 115.072 51.534ZM121.981 54.918C121.381 54.918 120.895 54.792 120.523 54.54C120.163 54.3 119.905 53.994 119.749 53.622C119.593 53.238 119.515 52.848 119.515 52.452C119.515 52.104 119.563 51.834 119.659 51.642C119.755 51.45 119.875 51.312 120.019 51.228C120.163 51.132 120.295 51.06 120.415 51.012C120.547 50.964 120.643 50.91 120.703 50.85C121.003 50.538 121.309 50.178 121.621 49.77C121.945 49.35 122.221 48.888 122.449 48.384V48.204C122.449 47.724 122.527 47.388 122.683 47.196C122.851 46.992 123.043 46.89 123.259 46.89C123.403 46.89 123.505 46.926 123.565 46.998C123.637 47.07 123.679 47.154 123.691 47.25C123.691 47.322 123.673 47.406 123.637 47.502C123.613 47.598 123.601 47.73 123.601 47.898C123.601 48.258 123.685 48.672 123.853 49.14C124.033 49.596 124.207 50.082 124.375 50.598C124.555 51.114 124.645 51.642 124.645 52.182C124.645 52.326 124.639 52.458 124.627 52.578C124.615 52.698 124.597 52.812 124.573 52.92C124.945 52.824 125.311 52.62 125.671 52.308C126.031 51.984 126.373 51.51 126.697 50.886L126.913 51.048C126.685 51.732 126.355 52.284 125.923 52.704C125.491 53.112 124.987 53.364 124.411 53.46C124.219 53.952 123.901 54.318 123.457 54.558C123.025 54.798 122.533 54.918 121.981 54.918ZM121.855 54.126C122.095 54.126 122.317 54.066 122.521 53.946C122.725 53.826 122.887 53.652 123.007 53.424C122.515 53.316 122.071 53.124 121.675 52.848C121.279 52.572 120.973 52.29 120.757 52.002C120.589 52.038 120.505 52.2 120.505 52.488C120.505 52.884 120.619 53.256 120.847 53.604C121.075 53.952 121.411 54.126 121.855 54.126ZM123.151 52.884C123.175 52.8 123.187 52.704 123.187 52.596C123.199 52.476 123.205 52.386 123.205 52.326C123.193 51.786 123.121 51.252 122.989 50.724C122.857 50.196 122.725 49.656 122.593 49.104C122.377 49.476 122.125 49.878 121.837 50.31C121.549 50.742 121.279 51.09 121.027 51.354C121.219 51.678 121.501 51.984 121.873 52.272C122.245 52.56 122.671 52.764 123.151 52.884ZM128.22 55.008C127.596 55.008 127.08 54.81 126.672 54.414C126.276 54.03 126.078 53.436 126.078 52.632C126.078 52.044 126.192 51.468 126.42 50.904C126.648 50.34 126.954 49.836 127.338 49.392C127.722 48.936 128.148 48.576 128.616 48.312C129.096 48.048 129.582 47.916 130.074 47.916C130.578 47.916 130.938 48.042 131.154 48.294C131.382 48.546 131.496 48.84 131.496 49.176C131.496 49.512 131.412 49.842 131.244 50.166C131.088 50.478 130.872 50.634 130.596 50.634C130.368 50.634 130.182 50.52 130.038 50.292C130.158 50.208 130.284 50.052 130.416 49.824C130.548 49.596 130.614 49.302 130.614 48.942C130.614 48.846 130.59 48.774 130.542 48.726C130.494 48.666 130.404 48.636 130.272 48.636C129.972 48.636 129.654 48.774 129.318 49.05C128.994 49.314 128.688 49.662 128.4 50.094C128.124 50.514 127.896 50.964 127.716 51.444C127.548 51.912 127.464 52.344 127.464 52.74C127.464 53.076 127.548 53.388 127.716 53.676C127.896 53.952 128.238 54.09 128.742 54.09C129.198 54.09 129.672 53.958 130.164 53.694C130.656 53.43 131.118 53.064 131.55 52.596C131.982 52.116 132.33 51.546 132.594 50.886L132.954 51.21C132.666 51.942 132.264 52.596 131.748 53.172C131.244 53.736 130.68 54.18 130.056 54.504C129.444 54.84 128.832 55.008 128.22 55.008ZM133.188 54.846C132.792 54.846 132.45 54.714 132.162 54.45C131.862 54.186 131.712 53.79 131.712 53.262C131.712 52.842 131.808 52.386 132 51.894C132.192 51.402 132.456 50.916 132.792 50.436C133.128 49.956 133.512 49.524 133.944 49.14C134.376 48.744 134.838 48.426 135.33 48.186C135.822 47.946 136.314 47.826 136.806 47.826C137.322 47.826 137.76 47.958 138.12 48.222C138.48 48.486 138.66 48.834 138.66 49.266C138.66 49.59 138.546 49.824 138.318 49.968C138.09 50.112 137.82 50.154 137.508 50.094C137.532 49.986 137.55 49.878 137.562 49.77C137.586 49.662 137.598 49.548 137.598 49.428C137.598 49.188 137.55 48.972 137.454 48.78C137.358 48.588 137.154 48.492 136.842 48.492C136.506 48.492 136.164 48.606 135.816 48.834C135.468 49.062 135.132 49.362 134.808 49.734C134.496 50.094 134.214 50.496 133.962 50.94C133.71 51.372 133.512 51.798 133.368 52.218C133.224 52.638 133.152 53.016 133.152 53.352C133.152 53.736 133.29 53.928 133.566 53.928C133.842 53.928 134.148 53.796 134.484 53.532C134.82 53.256 135.156 52.914 135.492 52.506C135.84 52.098 136.17 51.684 136.482 51.264C136.794 50.832 137.064 50.466 137.292 50.166C137.328 50.106 137.376 50.076 137.436 50.076C137.484 50.088 137.574 50.118 137.706 50.166C137.85 50.202 137.982 50.262 138.102 50.346C138.222 50.43 138.282 50.538 138.282 50.67C138.282 50.79 138.228 50.946 138.12 51.138C138.024 51.318 137.904 51.522 137.76 51.75C137.628 51.966 137.508 52.188 137.4 52.416C137.304 52.632 137.256 52.842 137.256 53.046C137.256 53.202 137.298 53.352 137.382 53.496C137.466 53.628 137.604 53.694 137.796 53.694C138.084 53.694 138.486 53.484 139.002 53.064C139.53 52.632 140.064 51.906 140.604 50.886L140.946 51.228C140.658 51.876 140.31 52.452 139.902 52.956C139.506 53.448 139.086 53.832 138.642 54.108C138.198 54.396 137.748 54.54 137.292 54.54C136.8 54.54 136.434 54.384 136.194 54.072C135.954 53.76 135.822 53.424 135.798 53.064C135.798 53.04 135.798 53.022 135.798 53.01C135.798 52.998 135.798 52.986 135.798 52.974C135.318 53.55 134.874 54.006 134.466 54.342C134.07 54.678 133.644 54.846 133.188 54.846ZM149.048 55.566C148.388 55.566 147.932 55.434 147.68 55.17C147.428 54.918 147.296 54.588 147.284 54.18C147.284 53.832 147.35 53.418 147.482 52.938C147.626 52.446 147.77 51.978 147.914 51.534C148.202 50.682 148.502 49.842 148.814 49.014C149.126 48.186 149.438 47.388 149.75 46.62C150.074 45.852 150.38 45.12 150.668 44.424C150.968 43.728 151.244 43.086 151.496 42.498C150.68 42.51 149.972 42.534 149.372 42.57C148.784 42.606 148.244 42.654 147.752 42.714C147.26 42.762 146.75 42.834 146.222 42.93C146.282 42.426 146.516 42.042 146.924 41.778C147.344 41.502 147.902 41.31 148.598 41.202C149.294 41.094 150.092 41.04 150.992 41.04C151.46 41.04 151.898 41.052 152.306 41.076C152.726 41.088 153.122 41.112 153.494 41.148C153.878 41.184 154.25 41.22 154.61 41.256C155.366 41.328 155.966 41.376 156.41 41.4C156.866 41.424 157.19 41.436 157.382 41.436C157.022 41.772 156.566 42.018 156.014 42.174C155.474 42.318 154.904 42.408 154.304 42.444C153.704 42.48 153.134 42.498 152.594 42.498C152.018 43.914 151.49 45.384 151.01 46.908C150.53 48.432 150.086 49.938 149.678 51.426C149.522 52.002 149.39 52.494 149.282 52.902C149.186 53.298 149.114 53.664 149.066 54C149.018 54.324 148.994 54.672 148.994 55.044C148.994 55.104 148.994 55.17 148.994 55.242C149.006 55.326 149.024 55.434 149.048 55.566ZM154.063 54.54C153.535 54.54 153.139 54.384 152.875 54.072C152.611 53.76 152.479 53.382 152.479 52.938C152.479 52.662 152.527 52.314 152.623 51.894C152.719 51.474 152.851 51.036 153.019 50.58C153.199 50.112 153.403 49.674 153.631 49.266C153.859 48.858 154.105 48.528 154.369 48.276C154.633 48.012 154.897 47.88 155.161 47.88C155.305 47.88 155.431 47.928 155.539 48.024C155.647 48.108 155.701 48.234 155.701 48.402C155.701 48.558 155.605 48.792 155.413 49.104C155.233 49.416 155.017 49.776 154.765 50.184C154.525 50.592 154.309 51.018 154.117 51.462C153.937 51.894 153.847 52.308 153.847 52.704C153.847 53.088 153.913 53.346 154.045 53.478C154.189 53.598 154.393 53.658 154.657 53.658C155.065 53.658 155.509 53.454 155.989 53.046C156.469 52.638 156.967 51.924 157.483 50.904L157.753 51.192C157.333 52.248 156.799 53.07 156.151 53.658C155.503 54.246 154.807 54.54 154.063 54.54ZM156.187 46.422C155.959 46.422 155.749 46.368 155.557 46.26C155.377 46.14 155.287 45.96 155.287 45.72C155.287 45.432 155.443 45.186 155.755 44.982C156.067 44.778 156.391 44.676 156.727 44.676C156.943 44.676 157.123 44.724 157.267 44.82C157.423 44.916 157.501 45.09 157.501 45.342C157.501 45.594 157.363 45.84 157.087 46.08C156.811 46.308 156.511 46.422 156.187 46.422ZM156.01 59.04C155.914 59.04 155.812 59.01 155.704 58.95C155.596 58.902 155.506 58.842 155.434 58.77C155.35 58.698 155.302 58.638 155.29 58.59C155.59 57.714 155.848 56.952 156.064 56.304C156.268 55.668 156.442 55.062 156.586 54.486C156.73 53.922 156.862 53.334 156.982 52.722C157.09 52.098 157.198 51.39 157.306 50.598C157.426 49.794 157.558 48.828 157.702 47.7C157.726 47.556 157.756 47.454 157.792 47.394C157.828 47.322 157.942 47.286 158.134 47.286C158.506 47.286 158.776 47.388 158.944 47.592C159.112 47.784 159.196 48 159.196 48.24C159.196 48.36 159.172 48.57 159.124 48.87C159.088 49.17 159.028 49.524 158.944 49.932C159.172 49.584 159.43 49.254 159.718 48.942C160.018 48.63 160.348 48.378 160.708 48.186C161.068 47.982 161.458 47.88 161.878 47.88C162.466 47.88 162.952 48.078 163.336 48.474C163.72 48.87 163.912 49.392 163.912 50.04C163.912 50.508 163.804 51.006 163.588 51.534C163.384 52.05 163.09 52.542 162.706 53.01C162.322 53.466 161.86 53.838 161.32 54.126C160.78 54.426 160.186 54.576 159.538 54.576C159.154 54.576 158.848 54.528 158.62 54.432C158.392 54.336 158.278 54.228 158.278 54.108C158.278 54.024 158.32 53.976 158.404 53.964C158.5 53.94 158.602 53.928 158.71 53.928C159.274 53.916 159.784 53.796 160.24 53.568C160.708 53.34 161.11 53.046 161.446 52.686C161.782 52.314 162.04 51.918 162.22 51.498C162.4 51.078 162.49 50.664 162.49 50.256C162.49 49.896 162.406 49.584 162.238 49.32C162.082 49.056 161.83 48.924 161.482 48.924C161.182 48.924 160.876 49.02 160.564 49.212C160.264 49.404 159.982 49.65 159.718 49.95C159.454 50.238 159.22 50.544 159.016 50.868C158.812 51.18 158.656 51.456 158.548 51.696C158.32 52.488 158.11 53.274 157.918 54.054C157.738 54.846 157.564 55.578 157.396 56.25C157.228 56.922 157.06 57.492 156.892 57.96C156.712 58.428 156.52 58.746 156.316 58.914C156.22 58.998 156.118 59.04 156.01 59.04ZM165.893 54.54C165.365 54.54 164.969 54.384 164.705 54.072C164.441 53.76 164.309 53.382 164.309 52.938C164.309 52.662 164.357 52.314 164.453 51.894C164.549 51.474 164.681 51.036 164.849 50.58C165.029 50.112 165.233 49.674 165.461 49.266C165.689 48.858 165.935 48.528 166.199 48.276C166.463 48.012 166.727 47.88 166.991 47.88C167.135 47.88 167.261 47.928 167.369 48.024C167.477 48.108 167.531 48.234 167.531 48.402C167.531 48.558 167.435 48.792 167.243 49.104C167.063 49.416 166.847 49.776 166.595 50.184C166.355 50.592 166.139 51.018 165.947 51.462C165.767 51.894 165.677 52.308 165.677 52.704C165.677 53.088 165.743 53.346 165.875 53.478C166.019 53.598 166.223 53.658 166.487 53.658C166.895 53.658 167.339 53.454 167.819 53.046C168.299 52.638 168.797 51.924 169.313 50.904L169.583 51.192C169.163 52.248 168.629 53.07 167.981 53.658C167.333 54.246 166.637 54.54 165.893 54.54ZM168.017 46.422C167.789 46.422 167.579 46.368 167.387 46.26C167.207 46.14 167.117 45.96 167.117 45.72C167.117 45.432 167.273 45.186 167.585 44.982C167.897 44.778 168.221 44.676 168.557 44.676C168.773 44.676 168.953 44.724 169.097 44.82C169.253 44.916 169.331 45.09 169.331 45.342C169.331 45.594 169.193 45.84 168.917 46.08C168.641 46.308 168.341 46.422 168.017 46.422ZM169.856 54.846C169.46 54.846 169.118 54.714 168.83 54.45C168.53 54.186 168.38 53.79 168.38 53.262C168.38 52.842 168.476 52.386 168.668 51.894C168.86 51.402 169.124 50.916 169.46 50.436C169.796 49.956 170.18 49.524 170.612 49.14C171.044 48.744 171.506 48.426 171.998 48.186C172.49 47.946 172.982 47.826 173.474 47.826C173.99 47.826 174.428 47.958 174.788 48.222C175.148 48.486 175.328 48.834 175.328 49.266C175.328 49.59 175.214 49.824 174.986 49.968C174.758 50.112 174.488 50.154 174.176 50.094C174.2 49.986 174.218 49.878 174.23 49.77C174.254 49.662 174.266 49.548 174.266 49.428C174.266 49.188 174.218 48.972 174.122 48.78C174.026 48.588 173.822 48.492 173.51 48.492C173.174 48.492 172.832 48.606 172.484 48.834C172.136 49.062 171.8 49.362 171.476 49.734C171.164 50.094 170.882 50.496 170.63 50.94C170.378 51.372 170.18 51.798 170.036 52.218C169.892 52.638 169.82 53.016 169.82 53.352C169.82 53.736 169.958 53.928 170.234 53.928C170.51 53.928 170.816 53.796 171.152 53.532C171.488 53.256 171.824 52.914 172.16 52.506C172.508 52.098 172.838 51.684 173.15 51.264C173.462 50.832 173.732 50.466 173.96 50.166C173.996 50.106 174.044 50.076 174.104 50.076C174.152 50.088 174.242 50.118 174.374 50.166C174.518 50.202 174.65 50.262 174.77 50.346C174.89 50.43 174.95 50.538 174.95 50.67C174.95 50.79 174.896 50.946 174.788 51.138C174.692 51.318 174.572 51.522 174.428 51.75C174.296 51.966 174.176 52.188 174.068 52.416C173.972 52.632 173.924 52.842 173.924 53.046C173.924 53.202 173.966 53.352 174.05 53.496C174.134 53.628 174.272 53.694 174.464 53.694C174.752 53.694 175.154 53.484 175.67 53.064C176.198 52.632 176.732 51.906 177.272 50.886L177.614 51.228C177.326 51.876 176.978 52.452 176.57 52.956C176.174 53.448 175.754 53.832 175.31 54.108C174.866 54.396 174.416 54.54 173.96 54.54C173.468 54.54 173.102 54.384 172.862 54.072C172.622 53.76 172.49 53.424 172.466 53.064C172.466 53.04 172.466 53.022 172.466 53.01C172.466 52.998 172.466 52.986 172.466 52.974C171.986 53.55 171.542 54.006 171.134 54.342C170.738 54.678 170.312 54.846 169.856 54.846ZM182.912 54.36C182.444 54.36 182.084 54.24 181.832 54C181.592 53.772 181.472 53.478 181.472 53.118C181.472 52.878 181.514 52.626 181.598 52.362C181.682 52.086 181.766 51.81 181.85 51.534C181.934 51.258 181.976 50.994 181.976 50.742C181.976 50.478 181.91 50.298 181.778 50.202C181.658 50.094 181.514 50.04 181.346 50.04C180.986 50.04 180.614 50.19 180.23 50.49C179.858 50.778 179.492 51.144 179.132 51.588C178.784 52.032 178.454 52.494 178.142 52.974C177.83 53.454 177.56 53.886 177.332 54.27C177.104 54.27 176.888 54.228 176.684 54.144C176.48 54.072 176.306 53.94 176.162 53.748C176.174 53.688 176.246 53.508 176.378 53.208C176.498 52.896 176.636 52.53 176.792 52.11C176.948 51.678 177.086 51.228 177.206 50.76C177.326 50.292 177.386 49.866 177.386 49.482C177.47 49.386 177.596 49.29 177.764 49.194C177.944 49.098 178.13 49.05 178.322 49.05C178.742 49.05 178.952 49.23 178.952 49.59C178.952 49.734 178.922 49.95 178.862 50.238C178.814 50.514 178.742 50.832 178.646 51.192C178.958 50.772 179.3 50.376 179.672 50.004C180.044 49.632 180.428 49.332 180.824 49.104C181.232 48.864 181.64 48.744 182.048 48.744C182.564 48.744 182.942 48.918 183.182 49.266C183.434 49.614 183.56 49.998 183.56 50.418C183.56 50.778 183.5 51.114 183.38 51.426C183.26 51.738 183.14 52.032 183.02 52.308C182.912 52.584 182.858 52.854 182.858 53.118C182.858 53.31 182.9 53.448 182.984 53.532C183.08 53.604 183.182 53.64 183.29 53.64C183.578 53.64 183.878 53.502 184.19 53.226C184.502 52.95 184.796 52.602 185.072 52.182C185.36 51.75 185.612 51.318 185.828 50.886L186.134 51.138C185.882 51.726 185.594 52.266 185.27 52.758C184.958 53.238 184.604 53.628 184.208 53.928C183.824 54.216 183.392 54.36 182.912 54.36ZM186.794 54.54C186.266 54.54 185.87 54.384 185.606 54.072C185.342 53.76 185.21 53.382 185.21 52.938C185.21 52.662 185.258 52.314 185.354 51.894C185.45 51.474 185.582 51.036 185.75 50.58C185.93 50.112 186.134 49.674 186.362 49.266C186.59 48.858 186.836 48.528 187.1 48.276C187.364 48.012 187.628 47.88 187.892 47.88C188.036 47.88 188.162 47.928 188.27 48.024C188.378 48.108 188.432 48.234 188.432 48.402C188.432 48.558 188.336 48.792 188.144 49.104C187.964 49.416 187.748 49.776 187.496 50.184C187.256 50.592 187.04 51.018 186.848 51.462C186.668 51.894 186.578 52.308 186.578 52.704C186.578 53.088 186.644 53.346 186.776 53.478C186.92 53.598 187.124 53.658 187.388 53.658C187.796 53.658 188.24 53.454 188.72 53.046C189.2 52.638 189.698 51.924 190.214 50.904L190.484 51.192C190.064 52.248 189.53 53.07 188.882 53.658C188.234 54.246 187.538 54.54 186.794 54.54ZM188.918 46.422C188.69 46.422 188.48 46.368 188.288 46.26C188.108 46.14 188.018 45.96 188.018 45.72C188.018 45.432 188.174 45.186 188.486 44.982C188.798 44.778 189.122 44.676 189.458 44.676C189.674 44.676 189.854 44.724 189.998 44.82C190.154 44.916 190.232 45.09 190.232 45.342C190.232 45.594 190.094 45.84 189.818 46.08C189.542 46.308 189.242 46.422 188.918 46.422Z" fill="black"/>
</svg>
