<svg width="148" height="90" viewBox="0 0 148 90" fill="none" xmlns="http://www.w3.org/2000/svg">
<path d="M27.384 48.566C26.748 48.518 26.328 48.362 26.124 48.098C25.932 47.834 25.836 47.504 25.836 47.108C25.836 46.664 25.914 46.13 26.07 45.506C26.226 44.882 26.43 44.216 26.682 43.508C26.934 42.8 27.21 42.098 27.51 41.402C27.378 41.414 27.168 41.432 26.88 41.456C26.604 41.48 26.316 41.51 26.016 41.546C25.728 41.57 25.494 41.6 25.314 41.636C25.35 41.264 25.488 40.976 25.728 40.772C25.98 40.556 26.298 40.4 26.682 40.304C27.078 40.208 27.504 40.154 27.96 40.142C28.272 39.278 28.59 38.438 28.914 37.622C29.25 36.794 29.586 36.038 29.922 35.354C29.85 35.342 29.766 35.336 29.67 35.336C29.574 35.324 29.442 35.318 29.274 35.318C28.542 35.318 27.972 35.396 27.564 35.552C27.168 35.708 26.892 35.93 26.736 36.218C26.592 36.506 26.52 36.86 26.52 37.28C26.52 37.58 26.55 37.856 26.61 38.108C26.67 38.348 26.76 38.612 26.88 38.9C26.316 38.804 25.914 38.624 25.674 38.36C25.434 38.084 25.314 37.742 25.314 37.334C25.314 36.71 25.542 36.158 25.998 35.678C26.466 35.198 27.09 34.82 27.87 34.544C28.662 34.268 29.55 34.13 30.534 34.13C31.17 34.13 31.806 34.172 32.442 34.256C33.078 34.34 33.672 34.382 34.224 34.382C34.524 34.382 34.812 34.364 35.088 34.328C35.364 34.28 35.682 34.208 36.042 34.112C35.466 34.748 34.992 35.174 34.62 35.39C34.26 35.606 33.906 35.714 33.558 35.714C33.27 35.714 32.898 35.678 32.442 35.606C31.986 35.522 31.494 35.462 30.966 35.426C30.81 35.81 30.642 36.254 30.462 36.758C30.282 37.262 30.096 37.802 29.904 38.378C29.724 38.954 29.538 39.548 29.346 40.16C29.97 40.208 30.534 40.262 31.038 40.322C31.542 40.382 32.1 40.424 32.712 40.448C32.568 40.64 32.418 40.796 32.262 40.916C32.118 41.024 31.92 41.102 31.668 41.15C31.428 41.198 31.092 41.234 30.66 41.258C30.24 41.282 29.688 41.3 29.004 41.312C28.908 41.672 28.806 42.038 28.698 42.41C28.59 42.782 28.494 43.1 28.41 43.364C28.338 43.628 28.29 43.79 28.266 43.85C27.93 45.002 27.696 45.944 27.564 46.676C27.444 47.396 27.384 48.026 27.384 48.566ZM36.0312 47.468C35.5872 47.468 35.2272 47.348 34.9512 47.108C34.6752 46.88 34.5372 46.568 34.5372 46.172C34.5372 45.836 34.6212 45.476 34.7892 45.092C34.9572 44.708 35.1252 44.33 35.2932 43.958C35.4732 43.586 35.5632 43.256 35.5632 42.968C35.5632 42.692 35.4732 42.464 35.2932 42.284C35.1132 42.092 34.9032 41.936 34.6632 41.816C34.3992 42.476 34.0992 43.118 33.7632 43.742C33.4392 44.354 33.1752 44.834 32.9712 45.182L32.7012 44.66C32.8692 44.348 33.0912 43.904 33.3672 43.328C33.6432 42.752 33.9072 42.11 34.1592 41.402C34.0392 41.282 33.9792 41.12 33.9792 40.916C33.9792 40.604 34.0752 40.31 34.2672 40.034C34.4592 39.758 34.6452 39.62 34.8252 39.62C34.9692 39.62 35.0712 39.704 35.1312 39.872C35.2032 40.028 35.2392 40.136 35.2392 40.196C35.2392 40.256 35.2092 40.364 35.1492 40.52C35.1012 40.676 35.0652 40.79 35.0412 40.862C35.0532 40.994 35.1552 41.126 35.3472 41.258C35.5512 41.378 35.7792 41.522 36.0312 41.69C36.2832 41.858 36.5052 42.068 36.6972 42.32C36.8892 42.572 36.9852 42.89 36.9852 43.274C36.9852 43.622 36.9072 43.976 36.7512 44.336C36.5952 44.696 36.4392 45.032 36.2832 45.344C36.1272 45.656 36.0492 45.926 36.0492 46.154C36.0492 46.322 36.0912 46.436 36.1752 46.496C36.2712 46.544 36.3792 46.568 36.4992 46.568C36.7872 46.568 37.0872 46.484 37.3992 46.316C37.7112 46.136 38.0172 45.908 38.3172 45.632C38.6172 45.356 38.8812 45.068 39.1092 44.768C39.3372 44.456 39.5112 44.174 39.6312 43.922L40.0632 44.246C39.8352 44.762 39.5052 45.272 39.0732 45.776C38.6412 46.268 38.1612 46.676 37.6332 47C37.1052 47.312 36.5712 47.468 36.0312 47.468ZM40.2482 47.846C39.8522 47.846 39.5102 47.714 39.2222 47.45C38.9222 47.186 38.7722 46.79 38.7722 46.262C38.7722 45.842 38.8682 45.386 39.0602 44.894C39.2522 44.402 39.5162 43.916 39.8522 43.436C40.1882 42.956 40.5722 42.524 41.0042 42.14C41.4362 41.744 41.8982 41.426 42.3902 41.186C42.8822 40.946 43.3742 40.826 43.8662 40.826C44.3822 40.826 44.8202 40.958 45.1802 41.222C45.5402 41.486 45.7202 41.834 45.7202 42.266C45.7202 42.59 45.6062 42.824 45.3782 42.968C45.1502 43.112 44.8802 43.154 44.5682 43.094C44.5922 42.986 44.6102 42.878 44.6222 42.77C44.6462 42.662 44.6582 42.548 44.6582 42.428C44.6582 42.188 44.6102 41.972 44.5142 41.78C44.4182 41.588 44.2142 41.492 43.9022 41.492C43.5662 41.492 43.2242 41.606 42.8762 41.834C42.5282 42.062 42.1922 42.362 41.8682 42.734C41.5562 43.094 41.2742 43.496 41.0222 43.94C40.7702 44.372 40.5722 44.798 40.4282 45.218C40.2842 45.638 40.2122 46.016 40.2122 46.352C40.2122 46.736 40.3502 46.928 40.6262 46.928C40.9022 46.928 41.2082 46.796 41.5442 46.532C41.8802 46.256 42.2162 45.914 42.5522 45.506C42.9002 45.098 43.2302 44.684 43.5422 44.264C43.8542 43.832 44.1242 43.466 44.3522 43.166C44.3882 43.106 44.4362 43.076 44.4962 43.076C44.5442 43.088 44.6342 43.118 44.7662 43.166C44.9102 43.202 45.0422 43.262 45.1622 43.346C45.2822 43.43 45.3422 43.538 45.3422 43.67C45.3422 43.79 45.2882 43.946 45.1802 44.138C45.0842 44.318 44.9642 44.522 44.8202 44.75C44.6882 44.966 44.5682 45.188 44.4602 45.416C44.3642 45.632 44.3162 45.842 44.3162 46.046C44.3162 46.202 44.3582 46.352 44.4422 46.496C44.5262 46.628 44.6642 46.694 44.8562 46.694C45.1442 46.694 45.5462 46.484 46.0622 46.064C46.5902 45.632 47.1242 44.906 47.6642 43.886L48.0062 44.228C47.7182 44.876 47.3702 45.452 46.9622 45.956C46.5662 46.448 46.1462 46.832 45.7022 47.108C45.2582 47.396 44.8082 47.54 44.3522 47.54C43.8602 47.54 43.4942 47.384 43.2542 47.072C43.0142 46.76 42.8822 46.424 42.8582 46.064C42.8582 46.04 42.8582 46.022 42.8582 46.01C42.8582 45.998 42.8582 45.986 42.8582 45.974C42.3782 46.55 41.9342 47.006 41.5262 47.342C41.1302 47.678 40.7042 47.846 40.2482 47.846ZM53.3043 47.36C52.8363 47.36 52.4763 47.24 52.2243 47C51.9843 46.772 51.8643 46.478 51.8643 46.118C51.8643 45.878 51.9063 45.626 51.9903 45.362C52.0743 45.086 52.1583 44.81 52.2423 44.534C52.3263 44.258 52.3683 43.994 52.3683 43.742C52.3683 43.478 52.3023 43.298 52.1703 43.202C52.0503 43.094 51.9063 43.04 51.7383 43.04C51.3783 43.04 51.0063 43.19 50.6223 43.49C50.2503 43.778 49.8843 44.144 49.5243 44.588C49.1763 45.032 48.8463 45.494 48.5343 45.974C48.2223 46.454 47.9523 46.886 47.7243 47.27C47.4963 47.27 47.2803 47.228 47.0763 47.144C46.8723 47.072 46.6983 46.94 46.5543 46.748C46.5663 46.688 46.6383 46.508 46.7703 46.208C46.8903 45.896 47.0283 45.53 47.1843 45.11C47.3403 44.678 47.4783 44.228 47.5983 43.76C47.7183 43.292 47.7783 42.866 47.7783 42.482C47.8623 42.386 47.9883 42.29 48.1563 42.194C48.3363 42.098 48.5223 42.05 48.7143 42.05C49.1343 42.05 49.3443 42.23 49.3443 42.59C49.3443 42.734 49.3143 42.95 49.2543 43.238C49.2063 43.514 49.1343 43.832 49.0383 44.192C49.3503 43.772 49.6923 43.376 50.0643 43.004C50.4363 42.632 50.8203 42.332 51.2163 42.104C51.6243 41.864 52.0323 41.744 52.4403 41.744C52.9563 41.744 53.3343 41.918 53.5743 42.266C53.8263 42.614 53.9523 42.998 53.9523 43.418C53.9523 43.778 53.8923 44.114 53.7723 44.426C53.6523 44.738 53.5323 45.032 53.4123 45.308C53.3043 45.584 53.2503 45.854 53.2503 46.118C53.2503 46.31 53.2923 46.448 53.3763 46.532C53.4723 46.604 53.5743 46.64 53.6823 46.64C53.9703 46.64 54.2703 46.502 54.5823 46.226C54.8943 45.95 55.1883 45.602 55.4643 45.182C55.7523 44.75 56.0043 44.318 56.2203 43.886L56.5263 44.138C56.2743 44.726 55.9863 45.266 55.6623 45.758C55.3503 46.238 54.9963 46.628 54.6003 46.928C54.2163 47.216 53.7843 47.36 53.3043 47.36ZM57.7801 48.008C57.1561 48.008 56.6401 47.81 56.2321 47.414C55.8361 47.03 55.6381 46.436 55.6381 45.632C55.6381 45.044 55.7521 44.468 55.9801 43.904C56.2081 43.34 56.5141 42.836 56.8981 42.392C57.2821 41.936 57.7081 41.576 58.1761 41.312C58.6561 41.048 59.1421 40.916 59.6341 40.916C60.1381 40.916 60.4981 41.042 60.7141 41.294C60.9421 41.546 61.0561 41.84 61.0561 42.176C61.0561 42.512 60.9721 42.842 60.8041 43.166C60.6481 43.478 60.4321 43.634 60.1561 43.634C59.9281 43.634 59.7421 43.52 59.5981 43.292C59.7181 43.208 59.8441 43.052 59.9761 42.824C60.1081 42.596 60.1741 42.302 60.1741 41.942C60.1741 41.846 60.1501 41.774 60.1021 41.726C60.0541 41.666 59.9641 41.636 59.8321 41.636C59.5321 41.636 59.2141 41.774 58.8781 42.05C58.5541 42.314 58.2481 42.662 57.9601 43.094C57.6841 43.514 57.4561 43.964 57.2761 44.444C57.1081 44.912 57.0241 45.344 57.0241 45.74C57.0241 46.076 57.1081 46.388 57.2761 46.676C57.4561 46.952 57.7981 47.09 58.3021 47.09C58.7581 47.09 59.2321 46.958 59.7241 46.694C60.2161 46.43 60.6781 46.064 61.1101 45.596C61.5421 45.116 61.8901 44.546 62.1541 43.886L62.5141 44.21C62.2261 44.942 61.8241 45.596 61.3081 46.172C60.8041 46.736 60.2401 47.18 59.6161 47.504C59.0041 47.84 58.3921 48.008 57.7801 48.008ZM63.8282 47.792C63.0602 47.792 62.4662 47.582 62.0462 47.162C61.6382 46.754 61.4342 46.238 61.4342 45.614C61.4342 45.086 61.5662 44.528 61.8302 43.94C62.1062 43.34 62.4722 42.782 62.9282 42.266C63.3842 41.738 63.8882 41.312 64.4402 40.988C64.9922 40.664 65.5442 40.502 66.0962 40.502C66.4082 40.502 66.7022 40.586 66.9782 40.754C67.2662 40.91 67.4102 41.228 67.4102 41.708C67.4102 42.164 67.2782 42.59 67.0142 42.986C66.7502 43.382 66.3962 43.736 65.9522 44.048C65.5082 44.36 65.0162 44.618 64.4762 44.822C63.9482 45.014 63.4142 45.14 62.8742 45.2C62.8622 45.248 62.8502 45.302 62.8382 45.362C62.8382 45.41 62.8382 45.494 62.8382 45.614C62.8382 45.674 62.8442 45.782 62.8562 45.938C62.8802 46.082 62.9342 46.238 63.0182 46.406C63.1022 46.574 63.2402 46.718 63.4322 46.838C63.6242 46.958 63.8882 47.018 64.2242 47.018C64.7282 47.018 65.2322 46.88 65.7362 46.604C66.2522 46.316 66.7322 45.938 67.1762 45.47C67.6322 45.002 68.0102 44.48 68.3102 43.904L68.6702 44.192C68.3462 44.912 67.9262 45.542 67.4102 46.082C66.9062 46.622 66.3422 47.042 65.7182 47.342C65.1062 47.642 64.4762 47.792 63.8282 47.792ZM63.0722 44.534C63.3842 44.498 63.7322 44.39 64.1162 44.21C64.5002 44.03 64.8662 43.802 65.2142 43.526C65.5742 43.25 65.8682 42.95 66.0962 42.626C66.3242 42.29 66.4382 41.954 66.4382 41.618C66.4382 41.486 66.4142 41.396 66.3662 41.348C66.3182 41.3 66.2402 41.276 66.1322 41.276C65.8562 41.276 65.5682 41.378 65.2682 41.582C64.9682 41.774 64.6742 42.032 64.3862 42.356C64.0982 42.668 63.8402 43.016 63.6122 43.4C63.3842 43.784 63.2042 44.162 63.0722 44.534ZM69.981 47.918C69.381 47.918 68.895 47.792 68.523 47.54C68.163 47.3 67.905 46.994 67.749 46.622C67.593 46.238 67.515 45.848 67.515 45.452C67.515 45.104 67.563 44.834 67.659 44.642C67.755 44.45 67.875 44.312 68.019 44.228C68.163 44.132 68.295 44.06 68.415 44.012C68.547 43.964 68.643 43.91 68.703 43.85C69.003 43.538 69.309 43.178 69.621 42.77C69.945 42.35 70.221 41.888 70.449 41.384V41.204C70.449 40.724 70.527 40.388 70.683 40.196C70.851 39.992 71.043 39.89 71.259 39.89C71.403 39.89 71.505 39.926 71.565 39.998C71.637 40.07 71.679 40.154 71.691 40.25C71.691 40.322 71.673 40.406 71.637 40.502C71.613 40.598 71.601 40.73 71.601 40.898C71.601 41.258 71.685 41.672 71.853 42.14C72.033 42.596 72.207 43.082 72.375 43.598C72.555 44.114 72.645 44.642 72.645 45.182C72.645 45.326 72.639 45.458 72.627 45.578C72.615 45.698 72.597 45.812 72.573 45.92C72.945 45.824 73.311 45.62 73.671 45.308C74.031 44.984 74.373 44.51 74.697 43.886L74.913 44.048C74.685 44.732 74.355 45.284 73.923 45.704C73.491 46.112 72.987 46.364 72.411 46.46C72.219 46.952 71.901 47.318 71.457 47.558C71.025 47.798 70.533 47.918 69.981 47.918ZM69.855 47.126C70.095 47.126 70.317 47.066 70.521 46.946C70.725 46.826 70.887 46.652 71.007 46.424C70.515 46.316 70.071 46.124 69.675 45.848C69.279 45.572 68.973 45.29 68.757 45.002C68.589 45.038 68.505 45.2 68.505 45.488C68.505 45.884 68.619 46.256 68.847 46.604C69.075 46.952 69.411 47.126 69.855 47.126ZM71.151 45.884C71.175 45.8 71.187 45.704 71.187 45.596C71.199 45.476 71.205 45.386 71.205 45.326C71.193 44.786 71.121 44.252 70.989 43.724C70.857 43.196 70.725 42.656 70.593 42.104C70.377 42.476 70.125 42.878 69.837 43.31C69.549 43.742 69.279 44.09 69.027 44.354C69.219 44.678 69.501 44.984 69.873 45.272C70.245 45.56 70.671 45.764 71.151 45.884ZM76.2195 48.008C75.5955 48.008 75.0795 47.81 74.6715 47.414C74.2755 47.03 74.0775 46.436 74.0775 45.632C74.0775 45.044 74.1915 44.468 74.4195 43.904C74.6475 43.34 74.9535 42.836 75.3375 42.392C75.7215 41.936 76.1475 41.576 76.6155 41.312C77.0955 41.048 77.5815 40.916 78.0735 40.916C78.5775 40.916 78.9375 41.042 79.1535 41.294C79.3815 41.546 79.4955 41.84 79.4955 42.176C79.4955 42.512 79.4115 42.842 79.2435 43.166C79.0875 43.478 78.8715 43.634 78.5955 43.634C78.3675 43.634 78.1815 43.52 78.0375 43.292C78.1575 43.208 78.2835 43.052 78.4155 42.824C78.5475 42.596 78.6135 42.302 78.6135 41.942C78.6135 41.846 78.5895 41.774 78.5415 41.726C78.4935 41.666 78.4035 41.636 78.2715 41.636C77.9715 41.636 77.6535 41.774 77.3175 42.05C76.9935 42.314 76.6875 42.662 76.3995 43.094C76.1235 43.514 75.8955 43.964 75.7155 44.444C75.5475 44.912 75.4635 45.344 75.4635 45.74C75.4635 46.076 75.5475 46.388 75.7155 46.676C75.8955 46.952 76.2375 47.09 76.7415 47.09C77.1975 47.09 77.6715 46.958 78.1635 46.694C78.6555 46.43 79.1175 46.064 79.5495 45.596C79.9815 45.116 80.3295 44.546 80.5935 43.886L80.9535 44.21C80.6655 44.942 80.2635 45.596 79.7475 46.172C79.2435 46.736 78.6795 47.18 78.0555 47.504C77.4435 47.84 76.8315 48.008 76.2195 48.008ZM81.1877 47.846C80.7917 47.846 80.4497 47.714 80.1617 47.45C79.8617 47.186 79.7117 46.79 79.7117 46.262C79.7117 45.842 79.8077 45.386 79.9997 44.894C80.1917 44.402 80.4557 43.916 80.7917 43.436C81.1277 42.956 81.5117 42.524 81.9437 42.14C82.3757 41.744 82.8377 41.426 83.3297 41.186C83.8217 40.946 84.3137 40.826 84.8057 40.826C85.3217 40.826 85.7597 40.958 86.1197 41.222C86.4797 41.486 86.6597 41.834 86.6597 42.266C86.6597 42.59 86.5457 42.824 86.3177 42.968C86.0897 43.112 85.8197 43.154 85.5077 43.094C85.5317 42.986 85.5497 42.878 85.5617 42.77C85.5857 42.662 85.5977 42.548 85.5977 42.428C85.5977 42.188 85.5497 41.972 85.4537 41.78C85.3577 41.588 85.1537 41.492 84.8417 41.492C84.5057 41.492 84.1637 41.606 83.8157 41.834C83.4677 42.062 83.1317 42.362 82.8077 42.734C82.4957 43.094 82.2137 43.496 81.9617 43.94C81.7097 44.372 81.5117 44.798 81.3677 45.218C81.2237 45.638 81.1517 46.016 81.1517 46.352C81.1517 46.736 81.2897 46.928 81.5657 46.928C81.8417 46.928 82.1477 46.796 82.4837 46.532C82.8197 46.256 83.1557 45.914 83.4917 45.506C83.8397 45.098 84.1697 44.684 84.4817 44.264C84.7937 43.832 85.0637 43.466 85.2917 43.166C85.3277 43.106 85.3757 43.076 85.4357 43.076C85.4837 43.088 85.5737 43.118 85.7057 43.166C85.8497 43.202 85.9817 43.262 86.1017 43.346C86.2217 43.43 86.2817 43.538 86.2817 43.67C86.2817 43.79 86.2277 43.946 86.1197 44.138C86.0237 44.318 85.9037 44.522 85.7597 44.75C85.6277 44.966 85.5077 45.188 85.3997 45.416C85.3037 45.632 85.2557 45.842 85.2557 46.046C85.2557 46.202 85.2977 46.352 85.3817 46.496C85.4657 46.628 85.6037 46.694 85.7957 46.694C86.0837 46.694 86.4857 46.484 87.0017 46.064C87.5297 45.632 88.0637 44.906 88.6037 43.886L88.9457 44.228C88.6577 44.876 88.3097 45.452 87.9017 45.956C87.5057 46.448 87.0857 46.832 86.6417 47.108C86.1977 47.396 85.7477 47.54 85.2917 47.54C84.7997 47.54 84.4337 47.384 84.1937 47.072C83.9537 46.76 83.8217 46.424 83.7977 46.064C83.7977 46.04 83.7977 46.022 83.7977 46.01C83.7977 45.998 83.7977 45.986 83.7977 45.974C83.3177 46.55 82.8737 47.006 82.4657 47.342C82.0697 47.678 81.6437 47.846 81.1877 47.846ZM97.0475 48.566C96.3875 48.566 95.9315 48.434 95.6795 48.17C95.4275 47.918 95.2955 47.588 95.2835 47.18C95.2835 46.832 95.3495 46.418 95.4815 45.938C95.6255 45.446 95.7695 44.978 95.9135 44.534C96.2015 43.682 96.5015 42.842 96.8135 42.014C97.1255 41.186 97.4375 40.388 97.7495 39.62C98.0735 38.852 98.3795 38.12 98.6675 37.424C98.9675 36.728 99.2435 36.086 99.4955 35.498C98.6795 35.51 97.9715 35.534 97.3715 35.57C96.7835 35.606 96.2435 35.654 95.7515 35.714C95.2595 35.762 94.7495 35.834 94.2215 35.93C94.2815 35.426 94.5155 35.042 94.9235 34.778C95.3435 34.502 95.9015 34.31 96.5975 34.202C97.2935 34.094 98.0915 34.04 98.9915 34.04C99.4595 34.04 99.8975 34.052 100.306 34.076C100.726 34.088 101.122 34.112 101.494 34.148C101.878 34.184 102.25 34.22 102.61 34.256C103.366 34.328 103.966 34.376 104.41 34.4C104.866 34.424 105.19 34.436 105.382 34.436C105.022 34.772 104.566 35.018 104.014 35.174C103.474 35.318 102.904 35.408 102.304 35.444C101.704 35.48 101.134 35.498 100.594 35.498C100.018 36.914 99.4895 38.384 99.0095 39.908C98.5295 41.432 98.0855 42.938 97.6775 44.426C97.5215 45.002 97.3895 45.494 97.2815 45.902C97.1855 46.298 97.1135 46.664 97.0655 47C97.0175 47.324 96.9935 47.672 96.9935 48.044C96.9935 48.104 96.9935 48.17 96.9935 48.242C97.0055 48.326 97.0235 48.434 97.0475 48.566ZM102.063 47.54C101.535 47.54 101.139 47.384 100.875 47.072C100.611 46.76 100.479 46.382 100.479 45.938C100.479 45.662 100.527 45.314 100.623 44.894C100.719 44.474 100.851 44.036 101.019 43.58C101.199 43.112 101.403 42.674 101.631 42.266C101.859 41.858 102.105 41.528 102.369 41.276C102.633 41.012 102.897 40.88 103.161 40.88C103.305 40.88 103.431 40.928 103.539 41.024C103.647 41.108 103.701 41.234 103.701 41.402C103.701 41.558 103.605 41.792 103.413 42.104C103.233 42.416 103.017 42.776 102.765 43.184C102.525 43.592 102.309 44.018 102.117 44.462C101.937 44.894 101.847 45.308 101.847 45.704C101.847 46.088 101.913 46.346 102.045 46.478C102.189 46.598 102.393 46.658 102.657 46.658C103.065 46.658 103.509 46.454 103.989 46.046C104.469 45.638 104.967 44.924 105.483 43.904L105.753 44.192C105.333 45.248 104.799 46.07 104.151 46.658C103.503 47.246 102.807 47.54 102.063 47.54ZM104.187 39.422C103.959 39.422 103.749 39.368 103.557 39.26C103.377 39.14 103.287 38.96 103.287 38.72C103.287 38.432 103.443 38.186 103.755 37.982C104.067 37.778 104.391 37.676 104.727 37.676C104.943 37.676 105.123 37.724 105.267 37.82C105.423 37.916 105.501 38.09 105.501 38.342C105.501 38.594 105.363 38.84 105.087 39.08C104.811 39.308 104.511 39.422 104.187 39.422ZM104.01 52.04C103.914 52.04 103.812 52.01 103.704 51.95C103.596 51.902 103.506 51.842 103.434 51.77C103.35 51.698 103.302 51.638 103.29 51.59C103.59 50.714 103.848 49.952 104.064 49.304C104.268 48.668 104.442 48.062 104.586 47.486C104.73 46.922 104.862 46.334 104.982 45.722C105.09 45.098 105.198 44.39 105.306 43.598C105.426 42.794 105.558 41.828 105.702 40.7C105.726 40.556 105.756 40.454 105.792 40.394C105.828 40.322 105.942 40.286 106.134 40.286C106.506 40.286 106.776 40.388 106.944 40.592C107.112 40.784 107.196 41 107.196 41.24C107.196 41.36 107.172 41.57 107.124 41.87C107.088 42.17 107.028 42.524 106.944 42.932C107.172 42.584 107.43 42.254 107.718 41.942C108.018 41.63 108.348 41.378 108.708 41.186C109.068 40.982 109.458 40.88 109.878 40.88C110.466 40.88 110.952 41.078 111.336 41.474C111.72 41.87 111.912 42.392 111.912 43.04C111.912 43.508 111.804 44.006 111.588 44.534C111.384 45.05 111.09 45.542 110.706 46.01C110.322 46.466 109.86 46.838 109.32 47.126C108.78 47.426 108.186 47.576 107.538 47.576C107.154 47.576 106.848 47.528 106.62 47.432C106.392 47.336 106.278 47.228 106.278 47.108C106.278 47.024 106.32 46.976 106.404 46.964C106.5 46.94 106.602 46.928 106.71 46.928C107.274 46.916 107.784 46.796 108.24 46.568C108.708 46.34 109.11 46.046 109.446 45.686C109.782 45.314 110.04 44.918 110.22 44.498C110.4 44.078 110.49 43.664 110.49 43.256C110.49 42.896 110.406 42.584 110.238 42.32C110.082 42.056 109.83 41.924 109.482 41.924C109.182 41.924 108.876 42.02 108.564 42.212C108.264 42.404 107.982 42.65 107.718 42.95C107.454 43.238 107.22 43.544 107.016 43.868C106.812 44.18 106.656 44.456 106.548 44.696C106.32 45.488 106.11 46.274 105.918 47.054C105.738 47.846 105.564 48.578 105.396 49.25C105.228 49.922 105.06 50.492 104.892 50.96C104.712 51.428 104.52 51.746 104.316 51.914C104.22 51.998 104.118 52.04 104.01 52.04ZM113.893 47.54C113.365 47.54 112.969 47.384 112.705 47.072C112.441 46.76 112.309 46.382 112.309 45.938C112.309 45.662 112.357 45.314 112.453 44.894C112.549 44.474 112.681 44.036 112.849 43.58C113.029 43.112 113.233 42.674 113.461 42.266C113.689 41.858 113.935 41.528 114.199 41.276C114.463 41.012 114.727 40.88 114.991 40.88C115.135 40.88 115.261 40.928 115.369 41.024C115.477 41.108 115.531 41.234 115.531 41.402C115.531 41.558 115.435 41.792 115.243 42.104C115.063 42.416 114.847 42.776 114.595 43.184C114.355 43.592 114.139 44.018 113.947 44.462C113.767 44.894 113.677 45.308 113.677 45.704C113.677 46.088 113.743 46.346 113.875 46.478C114.019 46.598 114.223 46.658 114.487 46.658C114.895 46.658 115.339 46.454 115.819 46.046C116.299 45.638 116.797 44.924 117.313 43.904L117.583 44.192C117.163 45.248 116.629 46.07 115.981 46.658C115.333 47.246 114.637 47.54 113.893 47.54ZM116.017 39.422C115.789 39.422 115.579 39.368 115.387 39.26C115.207 39.14 115.117 38.96 115.117 38.72C115.117 38.432 115.273 38.186 115.585 37.982C115.897 37.778 116.221 37.676 116.557 37.676C116.773 37.676 116.953 37.724 117.097 37.82C117.253 37.916 117.331 38.09 117.331 38.342C117.331 38.594 117.193 38.84 116.917 39.08C116.641 39.308 116.341 39.422 116.017 39.422ZM117.856 47.846C117.46 47.846 117.118 47.714 116.83 47.45C116.53 47.186 116.38 46.79 116.38 46.262C116.38 45.842 116.476 45.386 116.668 44.894C116.86 44.402 117.124 43.916 117.46 43.436C117.796 42.956 118.18 42.524 118.612 42.14C119.044 41.744 119.506 41.426 119.998 41.186C120.49 40.946 120.982 40.826 121.474 40.826C121.99 40.826 122.428 40.958 122.788 41.222C123.148 41.486 123.328 41.834 123.328 42.266C123.328 42.59 123.214 42.824 122.986 42.968C122.758 43.112 122.488 43.154 122.176 43.094C122.2 42.986 122.218 42.878 122.23 42.77C122.254 42.662 122.266 42.548 122.266 42.428C122.266 42.188 122.218 41.972 122.122 41.78C122.026 41.588 121.822 41.492 121.51 41.492C121.174 41.492 120.832 41.606 120.484 41.834C120.136 42.062 119.8 42.362 119.476 42.734C119.164 43.094 118.882 43.496 118.63 43.94C118.378 44.372 118.18 44.798 118.036 45.218C117.892 45.638 117.82 46.016 117.82 46.352C117.82 46.736 117.958 46.928 118.234 46.928C118.51 46.928 118.816 46.796 119.152 46.532C119.488 46.256 119.824 45.914 120.16 45.506C120.508 45.098 120.838 44.684 121.15 44.264C121.462 43.832 121.732 43.466 121.96 43.166C121.996 43.106 122.044 43.076 122.104 43.076C122.152 43.088 122.242 43.118 122.374 43.166C122.518 43.202 122.65 43.262 122.77 43.346C122.89 43.43 122.95 43.538 122.95 43.67C122.95 43.79 122.896 43.946 122.788 44.138C122.692 44.318 122.572 44.522 122.428 44.75C122.296 44.966 122.176 45.188 122.068 45.416C121.972 45.632 121.924 45.842 121.924 46.046C121.924 46.202 121.966 46.352 122.05 46.496C122.134 46.628 122.272 46.694 122.464 46.694C122.752 46.694 123.154 46.484 123.67 46.064C124.198 45.632 124.732 44.906 125.272 43.886L125.614 44.228C125.326 44.876 124.978 45.452 124.57 45.956C124.174 46.448 123.754 46.832 123.31 47.108C122.866 47.396 122.416 47.54 121.96 47.54C121.468 47.54 121.102 47.384 120.862 47.072C120.622 46.76 120.49 46.424 120.466 46.064C120.466 46.04 120.466 46.022 120.466 46.01C120.466 45.998 120.466 45.986 120.466 45.974C119.986 46.55 119.542 47.006 119.134 47.342C118.738 47.678 118.312 47.846 117.856 47.846ZM130.912 47.36C130.444 47.36 130.084 47.24 129.832 47C129.592 46.772 129.472 46.478 129.472 46.118C129.472 45.878 129.514 45.626 129.598 45.362C129.682 45.086 129.766 44.81 129.85 44.534C129.934 44.258 129.976 43.994 129.976 43.742C129.976 43.478 129.91 43.298 129.778 43.202C129.658 43.094 129.514 43.04 129.346 43.04C128.986 43.04 128.614 43.19 128.23 43.49C127.858 43.778 127.492 44.144 127.132 44.588C126.784 45.032 126.454 45.494 126.142 45.974C125.83 46.454 125.56 46.886 125.332 47.27C125.104 47.27 124.888 47.228 124.684 47.144C124.48 47.072 124.306 46.94 124.162 46.748C124.174 46.688 124.246 46.508 124.378 46.208C124.498 45.896 124.636 45.53 124.792 45.11C124.948 44.678 125.086 44.228 125.206 43.76C125.326 43.292 125.386 42.866 125.386 42.482C125.47 42.386 125.596 42.29 125.764 42.194C125.944 42.098 126.13 42.05 126.322 42.05C126.742 42.05 126.952 42.23 126.952 42.59C126.952 42.734 126.922 42.95 126.862 43.238C126.814 43.514 126.742 43.832 126.646 44.192C126.958 43.772 127.3 43.376 127.672 43.004C128.044 42.632 128.428 42.332 128.824 42.104C129.232 41.864 129.64 41.744 130.048 41.744C130.564 41.744 130.942 41.918 131.182 42.266C131.434 42.614 131.56 42.998 131.56 43.418C131.56 43.778 131.5 44.114 131.38 44.426C131.26 44.738 131.14 45.032 131.02 45.308C130.912 45.584 130.858 45.854 130.858 46.118C130.858 46.31 130.9 46.448 130.984 46.532C131.08 46.604 131.182 46.64 131.29 46.64C131.578 46.64 131.878 46.502 132.19 46.226C132.502 45.95 132.796 45.602 133.072 45.182C133.36 44.75 133.612 44.318 133.828 43.886L134.134 44.138C133.882 44.726 133.594 45.266 133.27 45.758C132.958 46.238 132.604 46.628 132.208 46.928C131.824 47.216 131.392 47.36 130.912 47.36ZM134.794 47.54C134.266 47.54 133.87 47.384 133.606 47.072C133.342 46.76 133.21 46.382 133.21 45.938C133.21 45.662 133.258 45.314 133.354 44.894C133.45 44.474 133.582 44.036 133.75 43.58C133.93 43.112 134.134 42.674 134.362 42.266C134.59 41.858 134.836 41.528 135.1 41.276C135.364 41.012 135.628 40.88 135.892 40.88C136.036 40.88 136.162 40.928 136.27 41.024C136.378 41.108 136.432 41.234 136.432 41.402C136.432 41.558 136.336 41.792 136.144 42.104C135.964 42.416 135.748 42.776 135.496 43.184C135.256 43.592 135.04 44.018 134.848 44.462C134.668 44.894 134.578 45.308 134.578 45.704C134.578 46.088 134.644 46.346 134.776 46.478C134.92 46.598 135.124 46.658 135.388 46.658C135.796 46.658 136.24 46.454 136.72 46.046C137.2 45.638 137.698 44.924 138.214 43.904L138.484 44.192C138.064 45.248 137.53 46.07 136.882 46.658C136.234 47.246 135.538 47.54 134.794 47.54ZM136.918 39.422C136.69 39.422 136.48 39.368 136.288 39.26C136.108 39.14 136.018 38.96 136.018 38.72C136.018 38.432 136.174 38.186 136.486 37.982C136.798 37.778 137.122 37.676 137.458 37.676C137.674 37.676 137.854 37.724 137.998 37.82C138.154 37.916 138.232 38.09 138.232 38.342C138.232 38.594 138.094 38.84 137.818 39.08C137.542 39.308 137.242 39.422 136.918 39.422Z" fill="white"/>
</svg>
